<svg xmlns="http://www.w3.org/2000/svg" width="1203.5" height="240" viewBox="0 0 1203.5 240"><path d="M165.16 240H54.84C24.553 240 0 215.447 0 185.16V54.84C0 24.553 24.553 0 54.84 0h110.32C195.447 0 220 24.553 220 54.84v130.32c0 30.287-24.553 54.84-54.84 54.84z" fill="#ca4c4f"/><path d="M1202.835 46.037h-19.262V188.37h19.309l.618.06V45.918l-.665.12zm-753.996 56.111c-.068-5.994-1.407-11.834-5.394-16.591-5.208-6.216-15.075-7.93-23.79-4.398-5.151 2.087-8.98 5.75-12.176 10.285-5.738-16.375-29.413-15.944-39.827.376l-1.786-11.09h-15.21v107.524h19.75v-83.082c0-4.858 2.672-8.802 7.216-10.65 5.46-2.22 10.654.607 11.742 6.409.463 2.47.54 4.968.54 7.477-.014 25.605-.009 51.21-.009 76.816v3.088h19.757v-3.138c0-26.533.14-53.067-.12-79.598-.05-4.978 2.315-7.786 5.848-10.146 5.704-3.81 12.343-.888 13.412 5.852.39 2.46.467 4.99.47 7.488.032 25.513.02 51.025.02 76.538v3.033h19.727c0-11.35.013-22.472-.003-33.593-.027-17.534.029-35.068-.167-52.6zM660.224 67.04v20.537c-.206-.243-.486-.596-.79-.928-10.856-11.843-28.428-8.988-34.91 5.698-2.58 5.842-3.76 12.055-3.825 18.375-.157 15.487-.166 30.979.017 46.466.076 6.5 1.326 12.883 3.783 18.967 2.906 7.197 7.789 12.221 15.733 13.257 8.517 1.11 15.747-1.403 20.922-8.651.46-.643.741-1.498 1.75-1.76l1.704 9.35h15.217V46.12h-19.601v20.92zm0 67.129c0 10.112.006 20.224-.003 30.336-.004 4.613-3.96 9.046-8.645 9.722-4.626.668-8.213-1.817-9.714-6.79-.943-3.125-1.347-6.34-1.37-9.6-.11-16.696-.338-33.394.14-50.088.088-3.08.7-6.076 1.991-8.886 2.118-4.608 7.179-6.497 11.589-3.998 3.573 2.024 6.087 4.947 6.042 9.525-.097 9.925-.03 19.853-.03 29.779zm311.255-51.864c-7.769-4.934-19.934-3.518-27.381 3.19-1.315 1.183-2.398 2.625-3.588 3.947.794-14.723.693-29.04.508-43.249h-19.686V188.24h19.762v-3.231-80.41c0-6.114 7.136-11.827 13.162-10.553 2.997.634 4.923 2.406 5.796 5.335.887 2.974.91 6.04.911 9.095.02 25.598.011 51.195.011 76.793v3.018h19.74v-1.488-80.687c.001-3.718-.258-7.409-1.126-11.037-1.24-5.184-3.432-9.798-8.109-12.769zm-167.64 47.092c-7.857-10.568-16.658-20.384-24.96-30.6-4.318-5.314-7.266-11.06-7.003-18.205.36-9.792 8.065-12.526 15.268-10.347 5.86 1.772 7.198 6.968 8.257 12.148 1.023 5.008.577 10.13.834 15.3h15.611c.99-5.055 2.102-9.841 2.105-14.786.004-9.383-2.157-17.86-10.218-23.746-10.384-7.583-29.263-7.591-39.664.062-8.7 6.402-11.605 15.514-11.384 25.848.251 11.792 5.668 21.467 12.895 30.337 7.903 9.7 16.494 18.838 23.817 29.01 4.162 5.782 5.964 12.252 5.42 19.382-.456 5.963-3.788 9.579-9.658 10.346-7.467.977-12.349-2.602-14.16-10.42-1.366-5.904-1.116-11.936-1.206-18.048h-15.627c-1.857 7.175-2.644 14.318-1.583 21.578 1.581 10.823 7.727 17.749 18.168 20.868 4.578 1.368 9.293 1.59 14.04 1.472 19.86-.49 32.692-14.442 29.812-36.438-1.178-8.997-5.484-16.658-10.764-23.76zM298.543 83.861c0 27.275.003 54.55-.01 81.825-.001 1.072.245 2.168-.65 3.143-1.838 2-3.803 3.743-6.409 4.72-6.13 2.301-10.938-.476-11.983-6.918-.374-2.305-.436-4.61-.436-6.93 0-25.326.003-50.653-.016-75.98 0-.98.29-2.02-.323-3.035h-19.034c-.551.764-.368 1.53-.368 2.254-.01 26.44-.024 52.88.01 79.32.005 4.076.163 8.155 1.197 12.143 1.314 5.068 3.482 9.591 8.153 12.416 6.482 3.92 13.266 3.49 20.06 1.021 5.333-1.938 9.097-5.867 12.529-10.927l2.019 11.363h14.999V80.73h-19.738v3.132zm292.284 14.828c-.87-6.391-2.753-12.374-8.486-16.175-8.334-5.525-21.116-3.62-28.784 4.195-1.507 1.536-2.846 3.238-4.49 5.124l-1.801-11.013h-15.12v107.451h19.701v-3.174-79.586c0-5.55 3.205-9.732 8.617-11.244 5.2-1.451 9.172.924 10.465 6.19.63 2.561.55 5.158.552 7.749.018 25.693.007 51.387.026 77.08 0 .987-.28 2.024.282 3.025h19.59v-2.27c0-26.435.014-52.871-.024-79.307a60.436 60.436 0 0 0-.528-8.045zm474.77-.631c-5.512-17.05-25.325-24.489-40.943-15.419-7.113 4.13-10.482 10.739-12.524 18.261-2.953 10.875-2.793 22.025-2.727 33.719-.107 7.884-.063 16.328 1.113 24.711.372 2.654.95 5.29 1.598 7.892 3.38 13.567 10.578 20.553 22.735 22.16 14.197 1.876 24.583-4.263 29.816-17.635 2.005-5.123 3.157-10.46 3.672-15.915 1.26-13.332.808-26.697.42-40.044-.175-6.016-1.293-11.956-3.16-17.73zm-16.345 37.487c-.122 8.43.371 17.997-.944 27.505-.331 2.394-.919 4.698-1.966 6.905-1.334 2.814-3.572 4.273-6.568 4.33-3.041.057-5.529-1.125-7.13-3.948-2.473-4.36-2.968-9.196-3.055-13.979-.295-16.318-.829-32.649.393-48.954.24-3.223.983-6.376 2.576-9.296 1.542-2.827 3.92-4.202 6.994-4.207 3.13-.006 5.401 1.543 6.785 4.442 1.759 3.683 2.189 7.63 2.487 11.603.612 8.15.396 16.32.428 25.599zm102.732-34.138c-5.255-22.95-24.217-25.29-40.034-19.604-8.568 3.08-12.235 10.845-14.474 19.204-2.892 10.796-2.754 21.844-2.7 33.619-.096 7.709-.08 16.154 1.098 24.538.385 2.745.958 5.477 1.634 8.167 3.374 13.424 10.501 20.35 22.55 22.024 14.175 1.968 24.677-4.166 29.919-17.454 2.02-5.121 3.17-10.454 3.725-15.902 1.254-12.308.666-24.653.578-36.986-.043-5.953-.968-11.806-2.296-17.606zm-17.358 34.14c-.121 8.425.372 17.992-.942 27.5-.331 2.393-.918 4.698-1.965 6.905-1.334 2.813-3.57 4.275-6.566 4.333-3.042.058-5.53-1.123-7.132-3.945-2.474-4.358-2.97-9.195-3.056-13.978-.297-16.319-.83-32.65.391-48.954.241-3.223.983-6.376 2.575-9.297 1.541-2.826 3.919-4.204 6.993-4.21 3.129-.007 5.402 1.54 6.787 4.439 1.76 3.683 2.19 7.63 2.488 11.602.612 8.151.396 16.32.427 25.605zm-272.041-38.36c3.13-4.745 9.63-4.374 12.226.684.81 1.58 1.187 3.286 1.58 5.004.89 3.885.331 7.89.824 11.836h15.57c1.294-4.705 1.601-9.223 1.36-13.78-.266-5.016-1.683-9.628-4.937-13.577-4.749-5.762-11.245-7.446-18.276-7.924-12.868-.876-22.703 5.311-27.46 17.289-1.648 4.148-2.77 8.444-3.313 12.867-1.693 13.768-1.068 27.587-.745 41.393.133 5.66.967 11.245 2.407 16.738 4.324 16.49 15.154 23.847 31.69 21.355 6.859-1.034 12.833-3.807 16.487-10.036 4.147-7.071 4.307-14.908 4.117-22.774H877.05c-.084 4.182.128 8.269-1.213 12.19-1.055 3.084-2.673 5.674-6.257 5.819-3.526.142-6.167-1.458-7.73-4.794-1.285-2.741-1.937-5.642-2.088-8.58-.924-17.977-.957-35.962-.008-53.938.18-3.408.88-6.814 2.831-9.771zM481.028 188.35h19.429V80.778h-19.43V188.35zm17.341-146.854c-4.657-2.366-9.504-2.518-14.136-.13-4.166 2.147-4.726 6.316-4.977 10.555.043.866.032 1.798.144 2.716.764 6.284 4.191 9.747 10.301 10.447 5.985.685 10.638-1.865 12.477-6.993 1.423-3.968 1.33-7.99-.03-11.978-.685-2.01-1.91-3.668-3.779-4.617z" fill="#020202"/><path d="M133.126 207.5H144l21.395-12.5V32.697h-32.269v64.37l-79.58 45.598v64.596H85.42v-45.388l47.706-27.514v73.14zm-79.58-101.18L85.42 88.966V32.685H53.547v73.634z" fill="#fff"/></svg>